<?xml version="1.0" standalone="no"?>
<!DOCTYPE svg PUBLIC "-//W3C//DTD SVG 20010904//EN"
 "http://www.w3.org/TR/2001/REC-SVG-20010904/DTD/svg10.dtd">
<svg version="1.0" xmlns="http://www.w3.org/2000/svg"
 width="474.000000pt" height="474.000000pt" viewBox="0 0 474.000000 474.000000"
 preserveAspectRatio="xMidYMid meet">
<metadata>
Created by potrace 1.14, written by Peter Selinger 2001-2017
</metadata>
<g transform="translate(0.000000,474.000000) scale(0.100000,-0.100000)"
fill="#000000" stroke="none">
<path d="M2320 3095 c-415 -92 -647 -463 -544 -870 44 -171 184 -343 344 -423
137 -67 220 -85 390 -85 170 0 256 19 386 82 84 42 215 152 213 181 0 12 -163
162 -254 234 l-24 19 -43 -39 c-62 -57 -106 -81 -178 -100 -158 -40 -315 36
-370 182 -18 50 -21 73 -18 154 5 109 28 169 86 228 59 58 113 77 222 77 115
0 163 -19 245 -95 l54 -52 141 123 c77 67 140 128 140 134 0 7 -31 42 -69 78
-76 71 -191 135 -296 163 -84 23 -339 28 -425 9z"/>
<path d="M3700 3091 c-234 -50 -394 -198 -445 -412 -12 -52 -15 -145 -15 -502
l0 -437 228 2 227 3 3 212 2 213 238 2 237 3 3 159 c2 110 -1 163 -9 172 -10
12 -54 14 -238 14 l-226 -2 -3 28 c-10 79 61 161 159 184 71 17 210 8 279 -19
30 -11 57 -17 61 -13 14 14 129 324 124 332 -9 15 -118 52 -195 66 -108 19
-326 17 -430 -5z"/>
<path d="M310 2415 l0 -676 483 3 c423 3 489 6 542 21 146 43 234 107 282 206
24 48 28 68 28 141 0 70 -5 95 -27 141 -34 75 -86 130 -153 165 -30 16 -55 32
-55 35 0 3 12 12 26 20 43 22 111 106 128 156 9 26 16 74 16 108 0 162 -103
274 -305 332 -52 14 -123 17 -512 21 l-453 3 0 -676z m767 329 c61 -45 55
-116 -11 -148 -32 -16 -63 -19 -170 -20 l-131 -1 -3 98 -3 99 145 -4 c128 -3
148 -5 173 -24z m43 -490 c48 -19 60 -38 60 -93 0 -45 -22 -75 -66 -91 -14 -6
-99 -10 -190 -10 l-164 0 0 105 0 105 160 0 c124 0 169 -4 200 -16z"/>
</g>
</svg>
